# xmcd
#
# Track frame offsets:
#	150
#	15800
#	32960
#	50277
#	67967
#	84369
#	101514
#	116100
#	131579
#	150382
#	164072
#	175342
#	192342
#	214792
#	227748
#	242850
#	262377
#	284154
#	308027
#	327583
#
# Disc length: 4602 seconds
#
# Revision: 0
# Processed by: cddbd v1.5.1PL2 Copyright (c) Steve Scherf et al.
# Submitted via: EasyCDDAExtractor 9.0.0.1
#
DISCID=2311f814
DTITLE=Various Artist - Ray hadley Presents
DYEAR=1900
DGENRE=Country
TTITLE0=Donovan Chapman - Good Problem To Have
TTITLE1=Adam Harvey - The Shake Of A Hand
TTITLE2=Kenny Chesney - You Had Me From Hello
TTITLE3=Lee Kernaghan - Goondiwindi Moon
TTITLE4=Robertson Brothers - Can't Cry Hard Enough
TTITLE5=Melinda Schneider - Real People
TTITLE6=Brad Paisley - I'm Gonna Miss Her
TTITLE7=Randy Travis - He Walked On Walter
TTITLE8=Graeme Connors - Being Here
TTITLE9=Rita Scheider - I've Had Everything
TTITLE10=Ricky Van Shelton - I've Cried My Last Tear For You
TTITLE11=Tyler Alexander - Because Of You
TTITLE12=Iris Dement - Our Town
TTITLE13=Delbert McClinton - Going Back To Louisiana
TTITLE14=Isla Grant and Al Grant - Darlin' When i'm Hurtin'
TTITLE15=Bushwackers - When The Rain Tumbles Down in July
TTITLE16=Adam Brand - The Anzac
TTITLE17=Noel Watson - Waltzing Maltilda
TTITLE18=Wolverines - 65 Roses
TTITLE19=Daddy's Gone
EXTD=
EXTT0=
EXTT1=
EXTT2=
EXTT3=
EXTT4=
EXTT5=
EXTT6=
EXTT7=
EXTT8=
EXTT9=
EXTT10=
EXTT11=
EXTT12=
EXTT13=
EXTT14=
EXTT15=
EXTT16=
EXTT17=
EXTT18=
EXTT19=
PLAYORDER=
